HIERARCHY
ROOT Hips
{
	OFFSET 0.00000 0.00000 0.00000
	CHANNELS 6 Xposition Yposition Zposition Zrotation Yrotation Xrotation 
	JOINT LHipJoint
	{
		OFFSET 0 0 0
		CHANNELS 3 Zrotation Yrotation Xrotation
		JOINT LeftHip
		{
			OFFSET 1.28858 -1.83292 1.03970
			CHANNELS 3 Zrotation Yrotation Xrotation
			JOINT LeftKnee
			{
				OFFSET 2.47846 -6.80952 0.00000
				CHANNELS 3 Zrotation Yrotation Xrotation
				JOINT LeftAnkle
				{
					OFFSET 2.75274 -7.56311 0.00000
					CHANNELS 3 Zrotation Yrotation Xrotation
					JOINT LeftToe
					{
						OFFSET 0.12848 -0.35301 1.68223
						CHANNELS 3 Zrotation Yrotation Xrotation
						End Site
						{
							OFFSET 0.00000 -0.00000 0.87311
						}
					}
				}
			}
		}
	}
	JOINT RHipJoint
	{
		OFFSET 0 0 0
		CHANNELS 3 Zrotation Yrotation Xrotation
		JOINT RightHip
		{
			OFFSET -1.31183 -1.83292 1.03970
			CHANNELS 3 Zrotation Yrotation Xrotation
			JOINT RightKnee
			{
				OFFSET -2.44740 -6.72417 0.00000
				CHANNELS 3 Zrotation Yrotation Xrotation
				JOINT RightAnkle
				{
					OFFSET -2.67343 -7.34519 0.00000
					CHANNELS 3 Zrotation Yrotation Xrotation
					JOINT RightToe
					{
						OFFSET -0.16914 -0.46471 1.77626
						CHANNELS 3 Zrotation Yrotation Xrotation
						End Site
						{
							OFFSET -0.00000 -0.00000 0.92777
						}
					}
				}
			}
		}
	}
	JOINT lowerback
	{
		OFFSET 0 0 0
		CHANNELS 3 Zrotation Yrotation Xrotation
		JOINT Chest
		{
			OFFSET 0.01249 2.14252 0.03842
			CHANNELS 3 Zrotation Yrotation Xrotation
			JOINT Chest2
			{
				OFFSET -0.02957 2.14199 -0.03751
				CHANNELS 3 Zrotation Yrotation Xrotation
				JOINT lowerneck
				{
					OFFSET 0 0 0
					CHANNELS 3 Zrotation Yrotation Xrotation
					JOINT Neck
					{
						OFFSET -0.01678 1.65709 -0.05476
						CHANNELS 3 Zrotation Yrotation Xrotation
						JOINT Head
						{
							OFFSET 0.07912 1.58331 -0.11843
							CHANNELS 3 Zrotation Yrotation Xrotation
							End Site
							{
								OFFSET 0.03298 1.73940 -0.04271
							}
						}
					}
				}
				JOINT LeftCollar
				{
					OFFSET 0 0 0
					CHANNELS 3 Zrotation Yrotation Xrotation
					JOINT LeftShoulder
					{
						OFFSET 3.39556 1.16496 0.08673
CHANNELS 3 Zrotation Xrotation Yrotation
						JOINT LeftElbow
						{
OFFSET 0 -5.239100 -0.000000
CHANNELS 3 Zrotation Xrotation Yrotation
							JOINT LeftWrist
							{
OFFSET 0 -3.314670 0.000000
CHANNELS 3 Zrotation Xrotation Yrotation
								JOINT lhand
								{
									OFFSET 0 0 0
CHANNELS 3 Zrotation Xrotation Yrotation
									JOINT LFingers
									{
OFFSET 0 -0.965900 0.000000
CHANNELS 3 Zrotation Xrotation Yrotation
										End Site
										{
OFFSET 0 -0.778730 0.000000
										}
									}
								}
								JOINT LThumb
								{
OFFSET 0 0.000000 0.000000
CHANNELS 3 Zrotation Xrotation Yrotation
									End Site
									{
OFFSET 0 -0.790620 0.790620
									}
								}
							}
						}
					}
				}
				JOINT RightCollar
				{
					OFFSET 0 0 0
					CHANNELS 3 Zrotation Yrotation Xrotation
					JOINT RightShoulder
					{
						OFFSET -3.27193 1.31331 0.33940
CHANNELS 3 Zrotation Xrotation Yrotation
						JOINT RightElbow
						{
OFFSET 0 -5.302520 0.000000
CHANNELS 3 Zrotation Xrotation Yrotation
							JOINT RightWrist
							{
OFFSET 0 -3.678750 0.000000
CHANNELS 3 Zrotation Xrotation Yrotation
								JOINT rhand
								{
									OFFSET 0 0 0
CHANNELS 3 Zrotation Xrotation Yrotation
									JOINT RFingers
									{
OFFSET 0 -0.594810 0.000000
CHANNELS 3 Zrotation Xrotation Yrotation
										End Site
										{
OFFSET 0 -0.479550 0.000000
										}
									}
								}
								JOINT RThumb
								{
OFFSET 0 0.000000 0.000000
CHANNELS 3 Zrotation Xrotation Yrotation
									End Site
									{
OFFSET 0 -0.486870 0.486870
									}
								}
							}
						}
					}
				}
			}
		}
	}
}
MOTION
Frames: 11
Frame Time: .0083333
10.9558 5.1063 10.9325 -0.5054 -0.5371 -99.3377 0.0000 0.0000 0.0000 -2.4500 -3.8936 4.1077 1.4086 7.5070 21.2264 0.0065 10.2751 -14.7368 5.9954 14.4238 44.9631 0.0000 0.0000 0.0000 1.9148 -3.5366 14.9302 0.0000 -0.0000 0.0000 -1.6505 -12.2661 -31.3742 -6.4692 -14.8681 46.8371 -2.7127 0.3088 16.0840 -1.8868 -0.2878 -0.3297 -0.4313 -0.0608 -9.4116 -2.4239 3.1621 2.5457 11.8189 4.4279 -1.6461 4.2310 2.0910 -1.3479 0.0000 -0.0000 0.0000 45.0287 1.2546 47.4456 116.8379 -57.0953 83.0156 28.1062 -47.8513 12.6626 0.0 0.0 0.0 -7.1250 0.0 0.0 0.5671 15.6903 0.3926 0.0000 -0.0000 0.0000 -30.5735 16.6261 5.5047 -136.1728 -50.1808 -98.6659 -35.2027 4.1437 31.9405 0.0 0.0 0.0 7.1250 0.0 -0.0 -4.8147 67.2641 2.5822
10.9503 5.1000 10.9608 -0.6722 -0.5587 -99.6151 0.0000 0.0000 0.0000 -2.1923 -3.4379 4.0377 1.4249 7.5484 21.3505 -0.0687 10.5565 -13.9172 5.4170 13.8386 42.5947 0.0000 0.0000 0.0000 1.9328 -3.7725 15.3553 0.0000 0.0000 -0.0000 -2.0657 -10.1287 -32.3363 -7.1338 -15.4435 49.3786 -2.4560 0.3836 16.4802 -2.0406 -0.1674 -0.2799 -0.7750 -0.0183 -9.5845 -2.2126 2.9933 2.4366 11.7614 4.1903 -1.4776 4.1762 1.9812 -1.2462 -0.0000 0.0000 0.0000 45.9407 0.5411 49.1725 115.8355 -57.3212 82.173 31.0103 -48.8225 12.0509 0.0 0.0 0.0 -7.1250 0.0 0.0 2.6202 16.0024 1.7982 -0.0000 0.0000 0.0000 -30.2326 17.1113 3.6221 -136.6507 -49.9337 -99.0323 -35.5531 3.6694 32.5866 0.0 0.0 0.0 7.1250 0.0 -0.0 -5.0712 68.0715 2.8133
10.9461 5.0981 10.9530 -0.7543 -0.6395 -99.7328 0.0000 0.0000 0.0000 -1.9003 -2.8153 3.8532 1.4395 7.5853 21.4613 -0.0708 10.4153 -13.6629 5.0789 13.4721 41.1625 0.0000 0.0000 0.0000 1.9999 -3.8703 15.4631 0.0000 -0.0000 0.0000 -1.9891 -10.8173 -32.3538 -6.9303 -15.2729 48.6103 -2.1651 0.4887 16.6827 -2.1729 0.0116 -0.2459 -1.1296 0.0504 -9.6625 -1.9136 2.7595 2.7309 11.5486 3.9144 -1.8002 4.0460 1.8234 -1.3681 -0.0000 0.0000 0.0000 47.106 -0.7898 50.8932 113.5835 -57.7905 80.2724 30.0491 -46.0744 10.2388 0.0 0.0 0.0 -7.1250 0.0 0.0 2.1258 18.1975 1.3565 -0.0000 0.0000 0.0000 -29.9589 17.5795 1.7434 -137.0126 -49.7436 -99.3089 -35.7745 3.0011 33.3008 0.0 0.0 0.0 7.1250 0.0 -0.0 -5.0996 68.9132 2.9261
10.9437 5.0962 10.9408 -0.7571 -0.7798 -99.6739 0.0000 0.0000 0.0000 -1.6238 -2.5480 3.6412 1.4575 7.6305 21.5973 0.0148 9.9029 -14.3478 4.9966 13.3799 40.8078 0.0000 0.0000 0.0000 2.1630 -3.8841 15.3595 0.0000 -0.0000 0.0000 -1.8652 -11.6146 -32.1871 -6.7067 -15.0799 47.7563 -1.8687 0.5819 16.6936 -2.2354 0.1889 -0.2633 -1.4102 0.1197 -9.6857 -1.6424 2.5408 3.2499 11.2743 3.6773 -2.3019 3.8995 1.6734 -1.5926 0.0000 0.0000 0.0000 47.6367 -2.2791 53.2532 111.0691 -58.2544 78.1394 27.7871 -39.1082 7.9546 0.0 0.0 0.0 -7.1250 0.0 0.0 0.6818 21.0046 0.3921 0.0000 0.0000 0.0000 -29.8533 18.0155 0.1044 -137.2228 -49.6319 -99.4692 -36.4691 2.5887 33.7494 0.0 0.0 0.0 7.1250 0.0 -0.0 -5.9950 69.6166 3.536
10.9427 5.0924 10.9289 -0.7290 -0.8735 -99.7314 0.0000 0.0000 0.0000 -1.4075 -2.1474 3.6179 1.4535 7.6205 21.5673 0.0874 9.4508 -14.8784 4.6959 13.0329 39.4917 0.0000 0.0000 0.0000 2.2691 -3.8658 15.3839 0.0000 -0.0000 0.0000 -1.7194 -12.4167 -31.9157 -6.4992 -14.8952 46.9538 -1.7095 0.6488 16.8617 -2.2418 0.3039 -0.2732 -1.5395 0.1671 -9.7899 -1.3634 2.3883 3.7252 10.9026 3.5186 -2.7167 3.7179 1.5689 -1.7851 0.0000 0.0000 0.0000 47.8413 -3.1767 54.9594 109.7313 -58.4766 77.0004 25.9291 -34.2277 6.6767 0.0 0.0 0.0 -7.1250 0.0 0.0 -0.6100 22.5637 -0.3292 0.0000 0.0000 0.0000 -29.9051 18.2865 -1.3104 -137.3240 -49.5778 -99.5462 -37.3294 2.6477 34.2803 0.0 0.0 0.0 7.1250 0.0 -0.0 -7.1737 70.4666 4.3697
10.9430 5.0872 10.9281 -0.6857 -0.9623 -99.9189 0.0000 0.0000 0.0000 -1.1740 -1.6293 3.6888 1.4506 7.6133 21.5455 0.1844 8.6393 -15.3205 4.4883 12.7833 38.5627 0.0000 0.0000 0.0000 2.3607 -3.8442 15.5614 0.0000 -0.0000 0.0000 -1.6385 -12.8201 -31.7409 -6.4207 -14.8240 46.6476 -1.5003 0.7362 17.2333 -2.2584 0.4497 -0.2957 -1.7214 0.2259 -10.0219 -1.3092 2.3295 3.7787 10.9380 3.4411 -2.6655 3.7218 1.5297 -1.7723 -0.0000 -0.0000 0.0000 48.1139 -3.8662 55.8051 108.7189 -58.6337 76.1367 24.2795 -31.2608 6.2545 0.0 0.0 0.0 -7.1250 0.0 0.0 -1.8112 23.1248 -0.9548 -0.0000 -0.0000 0.0000 -29.9605 18.569 -2.7288 -137.3514 -49.5631 -99.5671 -38.2432 3.0262 35.0913 0.0 0.0 0.0 7.1250 0.0 -0.0 -8.4038 71.6387 5.3401
10.9452 5.0828 10.9368 -0.6006 -1.0465 -100.0090 0.0000 0.0000 0.0000 -0.9707 -1.2893 3.7038 1.4541 7.6219 21.5715 0.3408 7.3709 -16.1160 4.6483 12.9764 39.2803 0.0000 0.0000 0.0000 2.4582 -3.7734 15.6335 0.0000 -0.0000 0.0000 -1.6162 -12.8688 -31.6427 -6.4500 -14.8506 46.7619 -1.5220 0.7577 17.3989 -2.1722 0.4781 -0.2820 -1.6254 0.2429 -10.1010 -1.3878 2.5483 3.0721 11.3398 3.6616 -1.8937 3.8732 1.6834 -1.4214 -0.0000 -0.0000 0.0000 47.833 -3.8225 56.3589 108.6198 -58.6486 76.052 22.7351 -29.8902 6.5098 0.0 0.0 0.0 -7.1250 0.0 0.0 -2.9537 22.9294 -1.5716 -0.0000 -0.0000 0.0000 -30.3096 18.4976 -3.7233 -137.2228 -49.6319 -99.4692 -39.3968 3.4332 35.7247 0.0 0.0 0.0 7.1250 0.0 -0.0 -10.2644 72.701 6.7677
10.9478 5.0808 10.9371 -0.4958 -1.0716 -100.0420 0.0000 0.0000 0.0000 -0.8944 -1.0883 3.7178 1.4571 7.6295 21.5943 0.4479 6.5838 -16.7485 4.5586 12.8688 38.8793 0.0000 0.0000 0.0000 2.5007 -3.6681 15.6439 0.0000 0.0000 -0.0000 -1.6009 -12.8643 -31.5447 -6.4509 -14.8515 46.7656 -1.4459 0.8443 17.4679 -2.1804 0.6079 -0.2698 -1.7125 0.3011 -10.1236 -1.2236 2.3694 4.0503 10.8993 3.5454 -3.1385 3.6908 1.5569 -1.9817 -0.0000 -0.0000 0.0000 47.8422 -4.1097 56.2768 108.4665 -58.6714 75.9211 21.233 -29.4967 7.3846 0.0 0.0 0.0 -7.1250 0.0 0.0 -4.0626 22.071 -2.2438 -0.0000 -0.0000 0.0000 -30.5011 18.6104 -4.9521 -137.1560 -49.6674 -99.4183 -40.225 3.3155 36.1283 0.0 0.0 0.0 7.1250 0.0 -0.0 -11.7279 73.41 7.9197
10.9486 5.0802 10.9277 -0.4311 -1.0760 -100.0350 0.0000 0.0000 0.0000 -0.8643 -0.9406 3.7127 1.4573 7.6300 21.5959 0.4909 6.3643 -17.0815 4.1976 12.4188 37.2300 0.0000 0.0000 0.0000 2.5507 -3.6087 15.6296 0.0000 -0.0000 0.0000 -1.5905 -12.7833 -31.4144 -6.4719 -14.8705 46.8474 -1.3052 0.9506 17.5322 -2.2480 0.7700 -0.3231 -1.9116 0.3692 -10.2135 -1.4901 2.2935 4.6658 11.2012 3.5197 -3.8644 3.8569 1.4984 -2.3521 0.0000 -0.0000 0.0000 47.9323 -4.3558 55.489 108.4889 -58.6681 75.9403 19.7313 -30.1227 8.7299 0.0 0.0 0.0 -7.1250 0.0 0.0 -5.1578 20.7315 -3.0101 0.0000 -0.0000 0.0000 -30.5937 19.0042 -6.2887 -137.1894 -49.6497 -99.4437 -40.7557 2.6652 36.5493 0.0 0.0 0.0 7.1250 0.0 -0.0 -12.6692 74.0391 8.7318
10.9498 5.0784 10.9254 -0.3761 -1.0775 -100.1130 0.0000 0.0000 0.0000 -0.8787 -1.0065 3.9015 1.4545 7.6229 21.5745 0.5895 5.7519 -17.7353 4.3976 12.6715 38.1511 0.0000 0.0000 0.0000 2.6318 -3.5800 15.7279 0.0000 0.0000 -0.0000 -1.5246 -12.9290 -31.1221 -6.4575 -14.8575 46.7912 -1.2172 1.0216 17.6697 -2.2879 0.8750 -0.3566 -2.0375 0.4131 -10.3247 -1.6263 2.2837 5.0602 11.3398 3.5567 -4.3474 3.9378 1.4874 -2.5997 0.0000 0.0000 0.0000 47.886 -4.3715 54.3412 108.8045 -58.6208 76.2098 19.1507 -32.2721 10.4829 0.0 0.0 0.0 -7.1250 0.0 0.0 -5.5844 18.9266 -3.4877 0.0000 0.0000 0.0000 -30.7416 19.217 -7.4804 -137.1751 -49.6573 -99.4328 -41.0608 1.9035 36.9962 0.0 0.0 0.0 7.1250 0.0 -0.0 -13.1739 74.6208 9.2462
10.9518 5.0765 10.9272 -0.3198 -1.0760 -100.2930 0.0000 0.0000 0.0000 -0.9353 -1.1192 4.1796 1.4525 7.6181 21.5599 0.6681 5.4240 -18.3572 4.7560 13.1036 39.7574 0.0000 0.0000 0.0000 2.7157 -3.5648 15.9522 0.0000 0.0000 -0.0000 -1.4429 -13.2014 -30.8323 -6.3077 -14.7200 46.2044 -1.1705 1.0623 17.8838 -2.3051 0.9322 -0.3489 -2.1040 0.4367 -10.4354 -1.5860 2.3073 5.4210 11.2213 3.6328 -4.8003 3.8903 1.5012 -2.8220 -0.0000 0.0000 0.0000 47.716 -4.1324 53.0048 109.4102 -58.5274 76.7266 18.9246 -34.9679 11.0796 0.0 0.0 0.0 -7.1250 0.0 0.0 -5.7505 18.3181 -3.6703 -0.0000 0.0000 0.0000 -30.8883 19.2249 -8.5174 -137.0676 -49.7144 -99.3509 -41.3051 1.2797 37.1639 0.0 0.0 0.0 7.1250 0.0 -0.0 -13.6523 74.8816 9.6605
